<?xml version="1.0" encoding="utf-8"?>
<!-- Generator: Adobe Illustrator 22.1.0, SVG Export Plug-In . SVG Version: 6.00 Build 0)  -->
<svg version="1.1" xmlns="http://www.w3.org/2000/svg" xmlns:xlink="http://www.w3.org/1999/xlink" x="0px" y="0px"
	 viewBox="0 0 2272 1872" style="enable-background:new 0 0 2272 1872;" xml:space="preserve">
<style type="text/css">
	.st0{fill:none;stroke:#FFFFFF;stroke-miterlimit:10;}
	.st1{fill:#D5D3EA;}
	.st2{fill:#B7372C;}
	.st3{fill:#FFEECB;}
	.st4{fill:#F9AE90;}
	.st5{fill:#202B35;}
	.st6{fill:#EC5946;}
	.st7{fill:#FEC83D;}
	.st8{fill:none;}
	.st9{fill:#B23F36;}
	.st10{fill:#6D4427;}
	.st11{fill:#54341E;}
	.st12{fill:#EF7C2E;}
	.st13{fill:#B25E26;}
	.st14{fill:#B53E35;}
	.st15{fill:#11171C;}
	.st16{fill:#151C21;}
	.st17{fill:#56331C;}
	.st18{fill:#87522D;}
	.st19{fill:#8681BD;}
	.st20{fill:#6867A0;}
	.st21{fill:#B75D20;}
	.st22{fill:#151D23;}
	.st23{fill:#172026;}
	.st24{fill:#633C21;}
	.st25{fill:#DD5E5E;}
</style>
<g id="Background">
	<g id="Layer_1_1_">
	</g>
	<g id="Layer_2">
	</g>
	<g id="Layer_1_2_">
	</g>
	<g id="Layer_2_1_">
	</g>
	<g>
		<g>
			<rect x="0" class="st0" width="2272" height="1872"/>
		</g>
	</g>
</g>
<g id="object">
	<g>
		<path class="st1" d="M2107.9,472.5c-34.7-40.5-73.3-77.2-120.3-103c-127.4-70-282.7-83.9-426.3-55.7
			c-143.6,28.1-276.4,95.8-394.8,179.5C1095.8,543.1,1029,599.3,950.7,637c-177.7,85.8-391.9-77.1-575.9-4.8
			C271,673.1,177.8,743.7,121.7,837.7C54.6,950.3-101.8,1443.9,299,1872h1678.4C2222.8,1619.1,2372.2,781,2107.9,472.5z"/>
		<g>
			<g>
				<path class="st2" d="M659,825.7c0,0,173.4-7.1,218.2-61.2c44.8-54,122.4-187.3,122.4-187.3l68.3-133.2c0,0,46.9,14.5,56.8,24.3
					c9.9,9.8-154,389.3-200.6,425.6s-215.5,84-215.5,84S630.2,886.3,659,825.7z"/>
				<g>
					<path class="st3" d="M1171.9,348.9c-0.2-0.4-0.5-0.7-0.8-1c-5.5-4.4-13.8-2.5-19.1,2.2s-8.3,11.6-11.5,18.1
						c-0.6,1.2-1.1,2.3-1.7,3.4c-1.2-2.8-2.7-5.4-4.8-7.6c5.4-21,9.2-42.4,11.2-64c0.1-0.8,0.1-1.7-0.4-2.3
						c-0.3-0.4-0.8-0.6-1.2-0.7c-7.2-2.4-15.1,2.7-19,9.7c-3.8,6.9-4.6,15.2-5.7,23.1c-1.2,9.3-2.8,18.5-4.9,27.6c-1,0-2.1,0-3.1,0
						c-1.4,0-2.9,0.1-4.3,0.1c4.5-18.9,7.8-38.1,9.6-57.5c0.1-0.8,0.1-1.7-0.4-2.3c-0.3-0.4-0.8-0.6-1.2-0.7
						c-7.2-2.4-15.1,2.7-19,9.7c-3.8,6.9-4.6,15.2-5.7,23.1c-1.3,10.2-3.2,20.3-5.5,30.2c-1.2,0.3-2.4,0.5-3.6,0.9
						c-2.6-18.1-6.3-36-11.3-53.5c-0.2-0.8-0.5-1.6-1.1-1.9c-0.4-0.2-0.9-0.2-1.4-0.2c-7.6,0.7-13,8.6-14.1,16.5
						c-1.1,7.9,1.2,15.9,3.1,23.7c2.8,11.5,4.9,23.2,6.3,35c-0.2,7,0,14,0.6,20.9c-3.1,0.2-6.6,0.9-9.1-1.1
						c-1.1-0.9-1.8-2.2-2.6-3.4c-4.3-6.1-11.9-9.4-19-8.1c-7.1,1.3-13.3,7.2-15.3,14.5c-0.2,0.7-0.4,1.5-0.1,2.3
						c0.4,1,1.5,1.4,2.5,1.7c6.5,2.1,12.7,5.1,18.4,9c13.9,9.4,15.7,32.8,32.9,38.5c0.3,0.1,0.6,0.2,0.9,0.3
						c5.2,14.4,14.3,25.5,31.5,25.3c3.7-0.1,7.3-0.8,10.7-2.2c2.8-1.2,5.5-2.8,7.6-5.1c2.6-3,4-6.9,5.4-10.7
						c6.5-18.5,13.1-37.6,15-57.1c0.2-0.3,0.3-0.5,0.5-0.8c11.2-16.8,21-34.7,29.2-53.4C1171.9,350.3,1172.2,349.5,1171.9,348.9z
						 M1092,436.7c-0.9,1.2-2.9,1.3-4.1,0.6c-4.2-2.6-4.1-8.9-5.6-13.4c-1.6-4.8-4.3-11.9-9.6-13.3c-2.4-0.7-1.7-4.2,0.6-4.4
						c6.9-0.6,11.3,3.7,14.8,9.6C1091.3,421.1,1096.5,431.1,1092,436.7z M1069.8,375.3c-2.1-0.1-2.7-3.5-0.5-4
						c12.6-3,24.8-4.9,37.7-2.4c5.4,1.1,10.8,3.1,15.6,6c3.6,2.2,9.5,5.5,9.1,10.5c-0.2,2-1.3,3.1-3.1,3.3
						c-4.2,0.5-8.1-4.6-11.7-6.5c-4-2.2-8.5-3.6-12.9-4.6C1092.9,375,1081,375.6,1069.8,375.3z"/>
					<path class="st4" d="M1088.1,415.7c-3.5-5.9-7.9-10.2-14.8-9.6c-2.3,0.2-3,3.7-0.6,4.4c5.2,1.4,8,8.5,9.6,13.3
						c1.5,4.5,1.4,10.8,5.6,13.4c1.2,0.7,3.1,0.6,4.1-0.6C1096.5,431.1,1091.3,421.1,1088.1,415.7z"/>
					<path class="st4" d="M1116.8,382.2c3.6,2,7.5,7.1,11.7,6.5c1.8-0.2,3-1.3,3.1-3.3c0.4-5-5.5-8.3-9.1-10.5
						c-4.8-2.9-10.1-4.9-15.6-6c-12.8-2.6-25.1-0.6-37.7,2.4c-2.2,0.5-1.6,3.9,0.5,4c11.2,0.3,23.1-0.2,34.1,2.3
						C1108.3,378.5,1112.8,380,1116.8,382.2z"/>
				</g>
				<path class="st3" d="M1124.7,468.2c-9.9-9.8-56.8-24.3-56.8-24.3l-68.3,133.2c0,0-77.6,133.3-122.4,187.3
					c-6.4,7.7-15.4,14.5-26.1,20.4c30.9,31.9,49.8,76.7,51.9,122.3c8.5-4.5,15.7-9,21.2-13.3C970.6,857.5,1134.6,478,1124.7,468.2z"
					/>
				<path class="st5" d="M878.6,1276.3c0,0,60.5,366.8,54.1,595.6H785.3l-64.8-365.3l-22.5,10l-17.5,356h-159l14.4-496.8
					C535.8,1375.8,815.7,1231.9,878.6,1276.3z"/>
				<path class="st6" d="M785.6,871.7c-16.8-33.8-49.2-55.7-85.3-57.4l-94.7-4.5c0,0-154.6,6-183.4,45.9
					c0,0,133.3,330.3,113.7,520.1c0,0,346.6,13.7,356.8,0C901.5,1363.8,862.9,1027.6,785.6,871.7z"/>
				<path class="st2" d="M546.9,1061.9c-6.1-22.7-14.1-44.9-22.6-66.8c-9.7-25.2-19.9-50.1-30-75c-9.4-22.9-33.9-56.7-57.3-77.1
					c-6.4,3.8-11.5,8-14.9,12.7c0,0,133.3,330.3,113.7,520.1c0,0,27,1.1,66.1,2.3c-13.1-79.3-26.3-158.5-39.4-237.8
					C558.2,1114,553.8,1087.6,546.9,1061.9z"/>
				<g>
					<path class="st5" d="M539.4,551.9c-12.2,1.6-24-5.1-33.5-13.2c-9.6-8.1-18-17.8-28.7-24.1c-9.7-5.7-20.7-8.4-31.7-9.8
						c-19.5-2.5-39.7-1.3-58,6.2c-18.3,7.5-34.6,21.6-42.9,40.4c-15.4,34.9-1.2,76-5.1,114.3c-4.2,41.5-29.6,77.7-35.4,119
						c-2.1,15.4-1.2,31.9,6.4,45.2c7,12.2,18.8,20.3,31,26.5c12.6,6.3,26.3,11,40.3,10.9c14-0.1,27.7-5,40.4-11.4
						c16.5-8.3,32-19.3,43.5-34.2c11.5-15,18.6-34.3,17-53.5c-1.9-23.1-15.6-43.1-22.2-65.3c-1.9-6.3-3.2-13.4-0.6-19.5
						c1.9-4.6,5.8-7.9,8.4-12.1c10.7-16.7,0.6-40.8,9.2-58.8c7.1-14.9,27.6-20.4,40.5-10.8c3.2,2.4,11.3-0.2,14.8-2
						c3.5-1.8,6.2-4.9,8.6-8.2c3.4-4.7,6.2-10.2,6.7-16.1C548.5,569.3,544.3,554.8,539.4,551.9z"/>
					<path class="st7" d="M498.4,598.5c-0.1,3.9,0,8.2,2,11.5c3.8,6,12.7,5.9,18.1,1.5c5.4-4.4,8-11.5,9.8-18.4
						c3.5-13,19-56-6.3-56.6C498.7,536,498.8,582.5,498.4,598.5z"/>
					<path class="st5" d="M732.2,651.4c17.5-19.3,31-43.2,35.7-69.4c2.7-15,2.4-31-3.7-44.9c-8-18.4-24.9-30.5-41.8-40.1
						c-18.8-10.7-39.2-19.6-60.6-20.8c-14-0.8-28.1,1.8-41.7,5.4c-31.2,8.3-61.9,22.9-83.6,48c-21.7,25.1-32.7,62.2-21.9,94.2
						c4.9,14.7,14,27.4,24.4,38.4c27.7,29.2,69.4,49.4,109,48.3c15.3-0.4,23.7-7.2,34.9-17.2C699.2,678.9,717.4,667.6,732.2,651.4z"
						/>
					<path class="st4" d="M576.7,677.2v149.7c0,0,59,43.7,79.7,21.3L671,720.9C671,720.9,606.4,661.6,576.7,677.2z"/>
					<path class="st3" d="M605.6,809.8c-11.6-8-21.5-18.7-28.8-31.2v48.2c0,0,59,43.7,79.7,21.3l2.6-22.5
						C640.2,826.1,621.3,820.6,605.6,809.8z"/>
					<path class="st3" d="M752.9,577.2c0,0,16.1,211.5-45.9,221.6c-62,10.1-145.4-7-141.4-119c0,0-58.3,10.4-48.8-37.2
						c9.5-47.6,46.9-23.9,46.9-23.9v38.5C563.7,657.3,715.9,684.7,752.9,577.2z"/>
					<path class="st4" d="M576.7,677.2c1.1,1.2,2.8,1.6,4.4,1.9c38.3,7.1,77.9,0.3,115-12.4c11.9-4.1,23.8-8.8,34.1-16.4
						c8.7-6.4,16.1-14.8,22.7-23.6c0.6-0.8,1.2-1.7,1.8-2.5c-0.3-27.5-1.8-47-1.8-47c-30,87-135.3,85.6-174.4,81.9
						c-0.8,3.2-1.6,6.4-2.4,9.6C575.4,671.6,574.8,675.1,576.7,677.2z"/>
					<path class="st4" d="M534.6,646.8c-0.1,3.1,1,6.2,2.6,8.8c2.4,3.7,6.1,6.5,10.2,7.2c10.4,1.8,18.7-12.3,11.4-20.9
						C552.6,634.6,535,634.4,534.6,646.8z"/>
					<path class="st8" d="M561.8,550.4c0,0.4,0,0.7,0,1.1"/>
				</g>
				<path class="st6" d="M614.5,1139.1c-2.1-10.8-4.2-21.8-9.5-31.3c-12.8-22.9-39.9-31.2-64.7-35.9
					c-54.3-10.3-109.8-12.8-164.7-7.5c46.7-12.8,86.3-38.6,136-57.7c1.6-0.6,3.4-1.3,4.4-2.8c1.5-2.1,1.2-5,0.8-7.5
					c-4.8-31.9-12.8-63.2-20.7-94.5c-4.7-18.5-9.8-37.7-21.7-52.2c-12-14.4-34.1,5.9-52.3,5.9c0,0-309.9,270.9-249.1,307.5
					c60.9,36.6,360.8-19.9,383.7-6.5c0,0,10.1,86.7,10.8,102.5c16.3-11.1,31.7-17.5,41.2-35.4c3.9-7.3,7.1-15.1,8.9-23.3
					C622.2,1180.4,618.4,1159.4,614.5,1139.1z"/>
				<path class="st2" d="M364.3,1059.6c2.7,2.3,5.3,4.8,8.6,5.9c4.9,1.7,10.1,0,15-2.1c-4.1,0.3-8.2,0.6-12.3,1
					c46.7-12.8,86.3-38.6,136-57.7c1.6-0.6,3.4-1.3,4.4-2.8c1.5-2.1,1.2-5,0.8-7.5c-2.3-15.5-5.4-30.9-8.9-46.1
					c-57.6,27.4-113.7,58.4-167.9,92.9C348.7,1047.7,356.8,1053.1,364.3,1059.6z"/>
				<path class="st5" d="M1305.4,988.1c0,0-278.2,48.8-286.7,81.9c-8.5,33-225.1,187.7-198.6,218.3c26.4,30.6,267.1-87.8,270.8-77.1
					c3.8,10.7-29.4,447-6,451.1s409.9,14.4,418.7-47.4c8.8-61.8-44.1-504.2-44.1-504.2s201-168.5,205.1-229.7
					c6.2-94.5-28.3-323.9-28.3-323.9s-93.2,20.8-94.2,43.2c-1,22.3,2,254-12.8,280.8S1305.4,988.1,1305.4,988.1z"/>
				<g>
					<g>
						<path class="st9" d="M1357.7,828.6c3.2-0.7,6.6-0.9,9.8,0.1c5.3,1.7,9.1,6.8,10.9,12.3c1.8,5.5,1.8,11.5,1.7,17.3
							c-0.2,11.1-1.1,22.6-6.6,32.1c-7.9,13.7-23.5,20-38.3,23.4c-2.6,0.6-5.4,1.1-7.8-0.1c-4.5-2.2-4.9-8.7-4.5-13.9
							C1324.7,871.1,1325.3,835.3,1357.7,828.6z"/>
						<path class="st9" d="M1144.2,838.3c-3.2-0.7-6.6-0.9-9.8,0.1c-5.3,1.7-9.1,6.8-10.9,12.3c-1.8,5.5-1.8,11.5-1.7,17.3
							c0.2,11.1,1.1,22.6,6.6,32.1c7.9,13.7,23.5,20,38.3,23.4c2.6,0.6,5.4,1.1,7.8-0.1c4.5-2.2,4.9-8.7,4.5-13.9
							C1177.2,880.8,1176.6,844.9,1144.2,838.3z"/>
						<path class="st3" d="M1211.2,976.8c0,0-35.3,103.1-7.2,93.2c28-9.9,63.9-72.5,63.9-72.5L1211.2,976.8z"/>
						<path class="st3" d="M1312.6,976.8c0,0,35.3,103.1,7.2,93.2c-28-9.9-63.9-72.5-63.9-72.5L1312.6,976.8z"/>
						<path class="st6" d="M1154.3,819.1c0,0-22.7,210.7,100,197.2c122.7-13.5,94.3-207.7,94.3-207.7S1245.3,681.2,1154.3,819.1z"/>
						<path class="st9" d="M1348.6,808.6c0,0-103.2-127.3-194.3,10.5c0,0-3.4,31.6-0.4,69.6c6.2-4,12.3-8.2,18.3-12.5
							c0.3,4.6-0.5,9.3-2.5,13.4c26.3,2,52.7-4.7,76.9-15.9c24.1-11.2,46.2-26.8,67.5-43.2c5,19,19.5,34.3,37,41
							C1352.6,836.2,1348.6,808.6,1348.6,808.6z"/>
					</g>
					<path class="st10" d="M1358.2,760.9c-6.9-20.8-14.8-42.1-29.6-57.7c-14.8-15.6-38.3-24-57.2-14.5c-4.4,2.2-8.4,5.3-12.9,7.1
						c-5.9,2.4-12.4,2.4-18.7,3c-27.1,2.2-53.6,13.8-73.3,33.5c-19.8,19.7-32.4,47.5-33.2,76.1c-0.7,24.3,7.6,56.7-3.3,78
						c16.4-3.5,32.1-9.9,46.8-18.3c10.5,4.5,22,6.7,33,4.5c26.9-5.4,54.4-12.9,76.1-30.6c14.8-12,26.3-28.3,42.2-38.6
						c1.6,28.4,13.4,56,32.4,76c-4.2-22.9-2.5-43.9,4.9-65.9C1371.9,793.8,1364.7,780.6,1358.2,760.9z M1242.8,840.7
						c-15.6,14.9-36.7,20.5-58,22.5c9.7-6.2,19-13.2,27.6-20.9c24-21.1,44-46.7,62.3-73.3C1269.1,796.4,1262.7,821.8,1242.8,840.7z"
						/>
					<path class="st11" d="M1358.2,760.9c-6.9-20.8-14.8-42.1-29.6-57.7c-14.8-15.6-38.3-24-57.2-14.5c-3.2,1.6-6.3,3.7-9.4,5.5
						c13.9,1.5,27.6,5.2,37,15.6c10.4,11.4,13.1,28.5,12.2,44.3c-1.5,27.2-12.2,53.8-29.7,73.8c-17.5,19.9-40.6,32.7-64.6,43.2
						c24.6-5.3,49.2-13,69-29.1c14.8-12,26.3-28.3,42.2-38.6c1.6,28.4,13.4,56,32.4,76c-4.2-22.9-2.5-43.9,4.9-65.9
						C1371.9,793.8,1364.7,780.6,1358.2,760.9z"/>
				</g>
				<path class="st5" d="M1305.4,988.1c0,0-278.2,48.8-286.7,81.9c-8.5,33-225.1,187.7-198.6,218.3c26.4,30.6,267.1-87.8,270.8-77.1
					c3.8,10.7-29.4,447-6,451.1s409.9,14.4,418.7-47.4c8.8-61.8-44.1-504.2-44.1-504.2s201-168.5,205.1-229.7
					c6.2-94.5-28.3-323.9-28.3-323.9s-93.2,20.8-94.2,43.2c-1,22.3,2,254-12.8,280.8S1305.4,988.1,1305.4,988.1z"/>
				<g>
					<g>
						<path class="st9" d="M1357.7,828.6c3.2-0.7,6.6-0.9,9.8,0.1c5.3,1.7,9.1,6.8,10.9,12.3c1.8,5.5,1.8,11.5,1.7,17.3
							c-0.2,11.1-1.1,22.6-6.6,32.1c-7.9,13.7-23.5,20-38.3,23.4c-2.6,0.6-5.4,1.1-7.8-0.1c-4.5-2.2-4.9-8.7-4.5-13.9
							C1324.7,871.1,1325.3,835.3,1357.7,828.6z"/>
						<path class="st9" d="M1144.2,838.3c-3.2-0.7-6.6-0.9-9.8,0.1c-5.3,1.7-9.1,6.8-10.9,12.3c-1.8,5.5-1.8,11.5-1.7,17.3
							c0.2,11.1,1.1,22.6,6.6,32.1c7.9,13.7,23.5,20,38.3,23.4c2.6,0.6,5.4,1.1,7.8-0.1c4.5-2.2,4.9-8.7,4.5-13.9
							C1177.2,880.8,1176.6,844.9,1144.2,838.3z"/>
						<path class="st3" d="M1211.2,976.8c0,0-35.3,103.1-7.2,93.2c28-9.9,63.9-72.5,63.9-72.5L1211.2,976.8z"/>
						<path class="st3" d="M1312.6,976.8c0,0,35.3,103.1,7.2,93.2c-28-9.9-63.9-72.5-63.9-72.5L1312.6,976.8z"/>
						<path class="st6" d="M1154.3,819.1c0,0-22.7,210.7,100,197.2c122.7-13.5,94.3-207.7,94.3-207.7S1245.3,681.2,1154.3,819.1z"/>
						<path class="st9" d="M1348.6,808.6c0,0-103.2-127.3-194.3,10.5c0,0-3.4,31.6-0.4,69.6c6.2-4,12.3-8.2,18.3-12.5
							c0.3,4.6-0.5,9.3-2.5,13.4c26.3,2,52.7-4.7,76.9-15.9c24.1-11.2,46.2-26.8,67.5-43.2c5,19,19.5,34.3,37,41
							C1352.6,836.2,1348.6,808.6,1348.6,808.6z"/>
					</g>
					<path class="st10" d="M1358.2,760.9c-6.9-20.8-14.8-42.1-29.6-57.7c-14.8-15.6-38.3-24-57.2-14.5c-4.4,2.2-8.4,5.3-12.9,7.1
						c-5.9,2.4-12.4,2.4-18.7,3c-27.1,2.2-53.6,13.8-73.3,33.5c-19.8,19.7-32.4,47.5-33.2,76.1c-0.7,24.3,7.6,56.7-3.3,78
						c16.4-3.5,32.1-9.9,46.8-18.3c10.5,4.5,22,6.7,33,4.5c26.9-5.4,54.4-12.9,76.1-30.6c14.8-12,26.3-28.3,42.2-38.6
						c1.6,28.4,13.4,56,32.4,76c-4.2-22.9-2.5-43.9,4.9-65.9C1371.9,793.8,1364.7,780.6,1358.2,760.9z M1242.8,840.7
						c-15.6,14.9-36.7,20.5-58,22.5c9.7-6.2,19-13.2,27.6-20.9c24-21.1,44-46.7,62.3-73.3C1269.1,796.4,1262.7,821.8,1242.8,840.7z"
						/>
					<path class="st11" d="M1358.2,760.9c-6.9-20.8-14.8-42.1-29.6-57.7c-14.8-15.6-38.3-24-57.2-14.5c-3.2,1.6-6.3,3.7-9.4,5.5
						c13.9,1.5,27.6,5.2,37,15.6c10.4,11.4,13.1,28.5,12.2,44.3c-1.5,27.2-12.2,53.8-29.7,73.8c-17.5,19.9-40.6,32.7-64.6,43.2
						c24.6-5.3,49.2-13,69-29.1c14.8-12,26.3-28.3,42.2-38.6c1.6,28.4,13.4,56,32.4,76c-4.2-22.9-2.5-43.9,4.9-65.9
						C1371.9,793.8,1364.7,780.6,1358.2,760.9z"/>
				</g>
				<path class="st5" d="M1305.4,988.1c0,0-278.2,48.8-286.7,81.9c-8.5,33-225.1,187.7-198.6,218.3c26.4,30.6,267.1-87.8,270.8-77.1
					c3.8,10.7-29.4,447-6,451.1s409.9,14.4,418.7-47.4c8.8-61.8-44.1-504.2-44.1-504.2s201-168.5,205.1-229.7
					c6.2-94.5-28.3-323.9-28.3-323.9s-93.2,20.8-94.2,43.2c-1,22.3,2,254-12.8,280.8S1305.4,988.1,1305.4,988.1z"/>
				<g>
					<g>
						<path class="st9" d="M1357.7,828.6c3.2-0.7,6.6-0.9,9.8,0.1c5.3,1.7,9.1,6.8,10.9,12.3c1.8,5.5,1.8,11.5,1.7,17.3
							c-0.2,11.1-1.1,22.6-6.6,32.1c-7.9,13.7-23.5,20-38.3,23.4c-2.6,0.6-5.4,1.1-7.8-0.1c-4.5-2.2-4.9-8.7-4.5-13.9
							C1324.7,871.1,1325.3,835.3,1357.7,828.6z"/>
						<path class="st9" d="M1144.2,838.3c-3.2-0.7-6.6-0.9-9.8,0.1c-5.3,1.7-9.1,6.8-10.9,12.3c-1.8,5.5-1.8,11.5-1.7,17.3
							c0.2,11.1,1.1,22.6,6.6,32.1c7.9,13.7,23.5,20,38.3,23.4c2.6,0.6,5.4,1.1,7.8-0.1c4.5-2.2,4.9-8.7,4.5-13.9
							C1177.2,880.8,1176.6,844.9,1144.2,838.3z"/>
						<path class="st3" d="M1211.2,976.8c0,0-35.3,103.1-7.2,93.2c28-9.9,63.9-72.5,63.9-72.5L1211.2,976.8z"/>
						<path class="st3" d="M1312.6,976.8c0,0,35.3,103.1,7.2,93.2c-28-9.9-63.9-72.5-63.9-72.5L1312.6,976.8z"/>
						<path class="st6" d="M1154.3,819.1c0,0-22.7,210.7,100,197.2c122.7-13.5,94.3-207.7,94.3-207.7S1245.3,681.2,1154.3,819.1z"/>
						<path class="st9" d="M1348.6,808.6c0,0-103.2-127.3-194.3,10.5c0,0-3.4,31.6-0.4,69.6c6.2-4,12.3-8.2,18.3-12.5
							c0.3,4.6-0.5,9.3-2.5,13.4c26.3,2,52.7-4.7,76.9-15.9c24.1-11.2,46.2-26.8,67.5-43.2c5,19,19.5,34.3,37,41
							C1352.6,836.2,1348.6,808.6,1348.6,808.6z"/>
					</g>
					<path class="st10" d="M1358.2,760.9c-6.9-20.8-14.8-42.1-29.6-57.7c-14.8-15.6-38.3-24-57.2-14.5c-4.4,2.2-8.4,5.3-12.9,7.1
						c-5.9,2.4-12.4,2.4-18.7,3c-27.1,2.2-53.6,13.8-73.3,33.5c-19.8,19.7-32.4,47.5-33.2,76.1c-0.7,24.3,7.6,56.7-3.3,78
						c16.4-3.5,32.1-9.9,46.8-18.3c10.5,4.5,22,6.7,33,4.5c26.9-5.4,54.4-12.9,76.1-30.6c14.8-12,26.3-28.3,42.2-38.6
						c1.6,28.4,13.4,56,32.4,76c-4.2-22.9-2.5-43.9,4.9-65.9C1371.9,793.8,1364.7,780.6,1358.2,760.9z M1242.8,840.7
						c-15.6,14.9-36.7,20.5-58,22.5c9.7-6.2,19-13.2,27.6-20.9c24-21.1,44-46.7,62.3-73.3C1269.1,796.4,1262.7,821.8,1242.8,840.7z"
						/>
					<path class="st11" d="M1358.2,760.9c-6.9-20.8-14.8-42.1-29.6-57.7c-14.8-15.6-38.3-24-57.2-14.5c-3.2,1.6-6.3,3.7-9.4,5.5
						c13.9,1.5,27.6,5.2,37,15.6c10.4,11.4,13.1,28.5,12.2,44.3c-1.5,27.2-12.2,53.8-29.7,73.8c-17.5,19.9-40.6,32.7-64.6,43.2
						c24.6-5.3,49.2-13,69-29.1c14.8-12,26.3-28.3,42.2-38.6c1.6,28.4,13.4,56,32.4,76c-4.2-22.9-2.5-43.9,4.9-65.9
						C1371.9,793.8,1364.7,780.6,1358.2,760.9z"/>
				</g>
				<path class="st5" d="M1305.4,988.1c0,0-278.2,48.8-286.7,81.9c-8.5,33-225.1,187.7-198.6,218.3c26.4,30.6,267.1-87.8,270.8-77.1
					c3.8,10.7-29.4,447-6,451.1s409.9,14.4,418.7-47.4c8.8-61.8-44.1-504.2-44.1-504.2s201-168.5,205.1-229.7
					c6.2-94.5-28.3-323.9-28.3-323.9s-93.2,20.8-94.2,43.2c-1,22.3,2,254-12.8,280.8S1305.4,988.1,1305.4,988.1z"/>
				<g>
					<g>
						<path class="st9" d="M1357.7,828.6c3.2-0.7,6.6-0.9,9.8,0.1c5.3,1.7,9.1,6.8,10.9,12.3c1.8,5.5,1.8,11.5,1.7,17.3
							c-0.2,11.1-1.1,22.6-6.6,32.1c-7.9,13.7-23.5,20-38.3,23.4c-2.6,0.6-5.4,1.1-7.8-0.1c-4.5-2.2-4.9-8.7-4.5-13.9
							C1324.7,871.1,1325.3,835.3,1357.7,828.6z"/>
						<path class="st9" d="M1144.2,838.3c-3.2-0.7-6.6-0.9-9.8,0.1c-5.3,1.7-9.1,6.8-10.9,12.3c-1.8,5.5-1.8,11.5-1.7,17.3
							c0.2,11.1,1.1,22.6,6.6,32.1c7.9,13.7,23.5,20,38.3,23.4c2.6,0.6,5.4,1.1,7.8-0.1c4.5-2.2,4.9-8.7,4.5-13.9
							C1177.2,880.8,1176.6,844.9,1144.2,838.3z"/>
						<path class="st3" d="M1211.2,976.8c0,0-35.3,103.1-7.2,93.2c28-9.9,63.9-72.5,63.9-72.5L1211.2,976.8z"/>
						<path class="st3" d="M1312.6,976.8c0,0,35.3,103.1,7.2,93.2c-28-9.9-63.9-72.5-63.9-72.5L1312.6,976.8z"/>
						<path class="st6" d="M1154.3,819.1c0,0-22.7,210.7,100,197.2c122.7-13.5,94.3-207.7,94.3-207.7S1245.3,681.2,1154.3,819.1z"/>
						<path class="st9" d="M1348.6,808.6c0,0-103.2-127.3-194.3,10.5c0,0-3.4,31.6-0.4,69.6c6.2-4,12.3-8.2,18.3-12.5
							c0.3,4.6-0.5,9.3-2.5,13.4c26.3,2,52.7-4.7,76.9-15.9c24.1-11.2,46.2-26.8,67.5-43.2c5,19,19.5,34.3,37,41
							C1352.6,836.2,1348.6,808.6,1348.6,808.6z"/>
					</g>
					<path class="st10" d="M1358.2,760.9c-6.9-20.8-14.8-42.1-29.6-57.7c-14.8-15.6-38.3-24-57.2-14.5c-4.4,2.2-8.4,5.3-12.9,7.1
						c-5.9,2.4-12.4,2.4-18.7,3c-27.1,2.2-53.6,13.8-73.3,33.5c-19.8,19.7-32.4,47.5-33.2,76.1c-0.7,24.3,7.6,56.7-3.3,78
						c16.4-3.5,32.1-9.9,46.8-18.3c10.5,4.5,22,6.7,33,4.5c26.9-5.4,54.4-12.9,76.1-30.6c14.8-12,26.3-28.3,42.2-38.6
						c1.6,28.4,13.4,56,32.4,76c-4.2-22.9-2.5-43.9,4.9-65.9C1371.9,793.8,1364.7,780.6,1358.2,760.9z M1242.8,840.7
						c-15.6,14.9-36.7,20.5-58,22.5c9.7-6.2,19-13.2,27.6-20.9c24-21.1,44-46.7,62.3-73.3C1269.1,796.4,1262.7,821.8,1242.8,840.7z"
						/>
					<path class="st11" d="M1358.2,760.9c-6.9-20.8-14.8-42.1-29.6-57.7c-14.8-15.6-38.3-24-57.2-14.5c-3.2,1.6-6.3,3.7-9.4,5.5
						c13.9,1.5,27.6,5.2,37,15.6c10.4,11.4,13.1,28.5,12.2,44.3c-1.5,27.2-12.2,53.8-29.7,73.8c-17.5,19.9-40.6,32.7-64.6,43.2
						c24.6-5.3,49.2-13,69-29.1c14.8-12,26.3-28.3,42.2-38.6c1.6,28.4,13.4,56,32.4,76c-4.2-22.9-2.5-43.9,4.9-65.9
						C1371.9,793.8,1364.7,780.6,1358.2,760.9z"/>
				</g>
				<path class="st12" d="M1134.9,1619.1v252.7H1542c0,0-17-265.5-61.3-336.6L1134.9,1619.1z"/>
				<path class="st13" d="M1480.7,1535.3l-345.8,83.8v158.2h398.6C1524.5,1693.7,1507.7,1578.5,1480.7,1535.3z"/>
				<path class="st14" d="M1333.8,1815.9c-0.5-12.1-1.3-24.1-2.2-36.1c-0.9-11.7-1.9-23.4-3.3-35.1c-1.4-11.8-2-24.6-5.7-35.9
					c-1.2-3.7-6-2.9-6.3,0.9c-1,11.8,0.9,24.2,1.6,36c0.7,12,1.5,24,2.1,36.1c0.6,11.7,0.9,23.4,1.3,35.2
					c0.4,12.2-0.1,24.7,1.5,36.8c0.4,3,3.8,4.8,6.4,4.4c3.1-0.4,4.7-3,5.1-6C1335.5,1840.2,1334.2,1827.7,1333.8,1815.9z"/>
				<g>
					<path class="st6" d="M1648.1,486.8c-0.2-0.4-0.5-0.7-0.8-1c-5.5-4.4-13.8-2.5-19.1,2.2c-5.3,4.7-8.3,11.6-11.5,18.1
						c-0.6,1.2-1.1,2.3-1.7,3.4c-1.2-2.8-2.7-5.4-4.8-7.6c5.4-21,9.2-42.4,11.2-64c0.1-0.8,0.1-1.7-0.4-2.3
						c-0.3-0.4-0.8-0.6-1.2-0.7c-7.2-2.4-15.1,2.7-19,9.7c-3.8,6.9-4.6,15.2-5.7,23.1c-1.2,9.3-2.8,18.5-4.9,27.6c-1,0-2.1,0-3.1,0
						c-1.4,0-2.9,0.1-4.3,0.1c4.5-18.9,7.8-38.1,9.6-57.5c0.1-0.8,0.1-1.7-0.4-2.3c-0.3-0.4-0.8-0.6-1.2-0.7
						c-7.2-2.4-15.1,2.7-19,9.7s-4.6,15.2-5.7,23.1c-1.3,10.2-3.2,20.3-5.5,30.2c-1.2,0.3-2.4,0.5-3.6,0.9
						c-2.6-18.1-6.3-36-11.3-53.5c-0.2-0.8-0.5-1.6-1.1-1.9c-0.4-0.2-0.9-0.2-1.4-0.2c-7.6,0.7-13,8.6-14.1,16.5
						c-1.1,7.9,1.2,15.9,3.1,23.7c2.8,11.5,4.9,23.2,6.3,35c-0.2,7,0,14,0.6,20.9c-3.1,0.2-6.6,0.9-9.1-1.1
						c-1.1-0.9-1.8-2.2-2.6-3.4c-4.3-6.1-11.9-9.4-19-8.1c-7.1,1.3-13.3,7.2-15.3,14.5c-0.2,0.7-0.4,1.5-0.1,2.3
						c0.4,1,1.5,1.4,2.5,1.7c6.5,2.1,12.7,5.1,18.4,9c13.9,9.4,15.7,32.8,32.9,38.5c0.3,0.1,0.6,0.2,0.9,0.3
						c5.2,14.4,14.3,25.5,31.5,25.3c3.7-0.1,7.3-0.8,10.7-2.2c2.8-1.2,5.5-2.8,7.6-5.1c2.6-3,4-6.9,5.4-10.7
						c6.5-18.5,13.1-37.6,15-57.1c0.2-0.3,0.3-0.5,0.5-0.8c11.2-16.8,21-34.7,29.2-53.4C1648,488.2,1648.3,487.4,1648.1,486.8z
						 M1568.2,574.6c-0.9,1.2-2.9,1.3-4.1,0.6c-4.2-2.6-4.1-8.9-5.6-13.4c-1.6-4.8-4.3-11.9-9.6-13.3c-2.4-0.7-1.7-4.2,0.6-4.4
						c6.9-0.6,11.3,3.7,14.8,9.6C1567.5,559,1572.6,569,1568.2,574.6z M1545.9,513.2c-2.1-0.1-2.7-3.5-0.5-4
						c12.6-3,24.8-4.9,37.7-2.4c5.4,1.1,10.8,3.1,15.6,6c3.6,2.2,9.5,5.5,9.1,10.5c-0.2,2-1.3,3.1-3.1,3.3
						c-4.2,0.5-8.1-4.6-11.7-6.5c-4-2.2-8.5-3.6-12.9-4.6C1569,512.9,1557.2,513.5,1545.9,513.2z"/>
					<path class="st9" d="M1564.3,553.6c-3.5-5.9-7.9-10.2-14.8-9.6c-2.3,0.2-3,3.7-0.6,4.4c5.2,1.4,8,8.5,9.6,13.3
						c1.5,4.5,1.4,10.8,5.6,13.4c1.2,0.7,3.1,0.6,4.1-0.6C1572.6,569,1567.5,559,1564.3,553.6z"/>
					<path class="st9" d="M1592.9,520.1c3.6,2,7.5,7.1,11.7,6.5c1.8-0.2,3-1.3,3.1-3.3c0.4-5-5.5-8.3-9.1-10.5
						c-4.8-2.9-10.1-4.9-15.6-6c-12.8-2.6-25.1-0.6-37.7,2.4c-2.2,0.5-1.6,3.9,0.5,4c11.2,0.3,23.1-0.2,34.1,2.3
						C1584.5,516.4,1588.9,517.9,1592.9,520.1z"/>
				</g>
				<path class="st5" d="M1305.4,988.1c0,0-278.2,48.8-286.7,81.9c-8.5,33-225.1,187.7-198.6,218.3c26.4,30.6,267.1-87.8,270.8-77.1
					c3.8,10.7-29.4,447-6,451.1s409.9,14.4,418.7-47.4c8.8-61.8-44.1-504.2-44.1-504.2s201-168.5,205.1-229.7
					c6.2-94.5-28.3-323.9-28.3-323.9s-93.2,20.8-94.2,43.2c-1,22.3,2,254-12.8,280.8S1305.4,988.1,1305.4,988.1z"/>
				<path class="st15" d="M1660.9,895.4c-8.4-4.8-17.4-8.5-26.6-6.9c-13.7,2.3-22.9,15.4-31.6,26.8
					c-44.6,58.7-109.1,97.1-156.3,153.5c-4.5,5.4-9.1,11.4-9.6,18.6c-0.7,10.1,6.7,18.7,13.8,25.5c3.4,3.3,6.8,6.5,10.3,9.6
					c-0.9-7.7-1.4-12-1.4-12S1633.1,965.1,1660.9,895.4z"/>
				<g>
					<g>
						<path class="st9" d="M1357.7,828.6c3.2-0.7,6.6-0.9,9.8,0.1c5.3,1.7,9.1,6.8,10.9,12.3c1.8,5.5,1.8,11.5,1.7,17.3
							c-0.2,11.1-1.1,22.6-6.6,32.1c-7.9,13.7-23.5,20-38.3,23.4c-2.6,0.6-5.4,1.1-7.8-0.1c-4.5-2.2-4.9-8.7-4.5-13.9
							C1324.7,871.1,1325.3,835.3,1357.7,828.6z"/>
						<path class="st9" d="M1144.2,838.3c-3.2-0.7-6.6-0.9-9.8,0.1c-5.3,1.7-9.1,6.8-10.9,12.3c-1.8,5.5-1.8,11.5-1.7,17.3
							c0.2,11.1,1.1,22.6,6.6,32.1c7.9,13.7,23.5,20,38.3,23.4c2.6,0.6,5.4,1.1,7.8-0.1c4.5-2.2,4.9-8.7,4.5-13.9
							C1177.2,880.8,1176.6,844.9,1144.2,838.3z"/>
						<path class="st3" d="M1211.2,976.8c0,0-35.3,103.1-7.2,93.2c28-9.9,63.9-72.5,63.9-72.5L1211.2,976.8z"/>
						<path class="st3" d="M1312.6,976.8c0,0,35.3,103.1,7.2,93.2c-28-9.9-63.9-72.5-63.9-72.5L1312.6,976.8z"/>
						<path class="st6" d="M1154.3,819.1c0,0-22.7,210.7,100,197.2c122.7-13.5,94.3-207.7,94.3-207.7S1245.3,681.2,1154.3,819.1z"/>
						<path class="st9" d="M1348.6,808.6c0,0-103.2-127.3-194.3,10.5c0,0-3.4,31.6-0.4,69.6c6.2-4,12.3-8.2,18.3-12.5
							c0.3,4.6-0.5,9.3-2.5,13.4c26.3,2,52.7-4.7,76.9-15.9c24.1-11.2,46.2-26.8,67.5-43.2c5,19,19.5,34.3,37,41
							C1352.6,836.2,1348.6,808.6,1348.6,808.6z"/>
					</g>
					<path class="st10" d="M1358.2,760.9c-6.9-20.8-14.8-42.1-29.6-57.7c-14.8-15.6-38.3-24-57.2-14.5c-4.4,2.2-8.4,5.3-12.9,7.1
						c-5.9,2.4-12.4,2.4-18.7,3c-27.1,2.2-53.6,13.8-73.3,33.5c-19.8,19.7-32.4,47.5-33.2,76.1c-0.7,24.3,7.6,56.7-3.3,78
						c16.4-3.5,32.1-9.9,46.8-18.3c10.5,4.5,22,6.7,33,4.5c26.9-5.4,54.4-12.9,76.1-30.6c14.8-12,26.3-28.3,42.2-38.6
						c1.6,28.4,13.4,56,32.4,76c-4.2-22.9-2.5-43.9,4.9-65.9C1371.9,793.8,1364.7,780.6,1358.2,760.9z M1242.8,840.7
						c-15.6,14.9-36.7,20.5-58,22.5c9.7-6.2,19-13.2,27.6-20.9c24-21.1,44-46.7,62.3-73.3C1269.1,796.4,1262.7,821.8,1242.8,840.7z"
						/>
					<path class="st11" d="M1358.2,760.9c-6.9-20.8-14.8-42.1-29.6-57.7c-14.8-15.6-38.3-24-57.2-14.5c-3.2,1.6-6.3,3.7-9.4,5.5
						c13.9,1.5,27.6,5.2,37,15.6c10.4,11.4,13.1,28.5,12.2,44.3c-1.5,27.2-12.2,53.8-29.7,73.8c-17.5,19.9-40.6,32.7-64.6,43.2
						c24.6-5.3,49.2-13,69-29.1c14.8-12,26.3-28.3,42.2-38.6c1.6,28.4,13.4,56,32.4,76c-4.2-22.9-2.5-43.9,4.9-65.9
						C1371.9,793.8,1364.7,780.6,1358.2,760.9z"/>
				</g>
				<g>
					<path class="st16" d="M846.1,1639.2l-28.6,232.6h333.9c0,0-2.5-212.5-41.8-275.7L846.1,1639.2z"/>
					<path class="st7" d="M782.1,1584.9c-1.4-22.3,35.8-108,35.8-108l-72.4-31c0,0-42.3,97.3-40.9,122.6c1.4,25.3,4,191.9,4,191.9
						c-3.5,6.5-3.8,17.7-5.8,25c-2.3,8.7-5,17.3-8,25.7c-0.4,1-0.7,2-1,3c-1.5,2.9-3.2,5.7-4.9,8.5c-4.6,7.3-10,14.2-15.3,21
						c-3.9,5,2,11.3,6.7,7.1c7.2-6.5,14.1-12.9,20-20.9c0,0,0.1-0.1,0.1-0.1c0.9,0.6,1.9,1.2,2.8,1.7c0.6,0.3,1.3,0.6,1.9,0.9
						c-3.3,8.7-7.4,17.5-13.7,24.2c-5.4,5.8,2.9,14.7,8.5,9c6.9-7.1,12.6-15.3,16.7-24.5c0.7-1.5,1.3-3.1,2-4.6
						c1.8,0.3,3.6,0.5,5.4,0.7c-0.2,0.6-0.3,1.1-0.5,1.6c-1.6,4.8-3.4,9.4-5.3,14c-2.1,4.8-3.7,10.2-6.6,14.5
						c-2.2,3.3,2.5,6.6,5.1,4.2c3.6-3.5,7.7-6.1,10.9-10c3.1-3.8,6-8.2,8.2-12.8c1.3-2.6,3.2-6.7,4.6-11.1c0.8,0,1.6-0.1,2.4-0.1
						c0.3,1.4,0.5,2.7,0.6,4c1,8.1,0.4,16.3,1.2,24.4c0.4,3.7,4,5.4,6.8,3c6.5-5.8,5.8-17.4,5.6-25.4c-0.1-3.3-0.3-6.6-0.6-9.9
						c1.7-2.7,2-6.4,2.1-9.7c0.1-7.7-0.1-15.4-0.7-23c2.7,6.1,4.6,12.4,5,19.1c0.4,6.6,10.2,6.7,9.8,0c-0.8-13.6-4.7-25.9-10.8-37.8
						c-3.1-5.9-6.4-11.7-9.9-17.4c0,0,0-0.1,0-0.1c-0.7-3-1.5-6-2.4-9c-0.2-0.8-0.5-1.6-1.1-2.1
						C748.2,1753,783.5,1607.3,782.1,1584.9z"/>
					<path class="st7" d="M1143,1390.4c0,0,124.6,36.8,138,26.2s111.6-168.3,111.6-168.3l-34.4-2l-108.9,85.5l-137.2-31.4
						C1112.2,1300.4,1103.8,1362.7,1143,1390.4z"/>
					<g>
						<path class="st17" d="M1307.9,1134.8c-4.1,0.7-8.9,1.6-10.8,5.5c-0.9,1.8-1,3.9-0.9,6c0.6,19.7,13,38.5,30.4,45.9
							c17.3,7.4,38.6,3,52.1-10.7c10.9-11.2,16.3-27.2,19-43c3.1-18.5,2.8-37.6-0.6-56.1c-0.9-4.7-2-19.9-9.6-17.7
							c-4.1,1.2-7.5,14.6-9.7,18.5C1362.7,1109.8,1336.8,1129.6,1307.9,1134.8z"/>
						<path class="st18" d="M1361.7,1286.8c1.7,0.1,3.4,0.3,5.1,0.4c-14.6-7.6-29.5-14.5-44.6-20.8c-14.8-28.6-25.8-52.7-40.5-81.3
							c-6.6-12.7-11.6-32,0.5-38.9c7.8-4.4,17.4,0.5,23.8,6.9c6.4,6.4,11.5,14.6,19.3,18.8c14.6,7.8,33.2-1.8,41.9-16.4
							s10-32.7,11.1-49.9c1.3-20.7,2.6-41.5,3.9-62.2c0.2-3.7,0.5-7.5,2.3-10.6c3.5-6,11.1-7.2,17.8-7.2
							c48.8-0.3,96.3,32.2,116.2,79.2c19.8,47.1,10.9,106.1-22,144.2C1463.7,1287.1,1407.9,1303.2,1361.7,1286.8z"/>
						<path class="st17" d="M1445.6,1093.8c-0.9-4.2-4.6-6.3-8.5-7.5c0.6-6.7,1-13.4,1.2-20c0.2-5.4,0.1-10.9-0.2-16.3
							c-0.1-2.4-0.3-4.7-0.6-7.1c-0.4-3-1.4-5.1-2.4-7.9c-0.7-2.2-3.5-2.2-4.2,0c-1.6,4.8-2.6,8.9-3.2,14c-0.5,5.1-1,10.2-1.5,15.3
							c-0.6,6.7-1.3,13.4-2,20c-3.2,0-6.4,0.3-9.7,0.2c-2.6,0-2.6,4.2,0,4.3c3.1,0.1,6,1.1,8.8,2.4c-0.2,1.5-0.4,3.1-0.6,4.6
							c-0.4,2.7-0.8,5.5-1.3,8.2c-3.2-0.6-6.3-0.7-8.9-0.6c-2.4,0.1-2.9,3.1-1.1,4.4c2.7,2.1,5.5,4.1,8.4,6
							c-0.7,4.1-1.5,8.1-2.3,12.2c-1,5-2,10-3.2,15c-1.2,5.5-2.3,9.9-0.1,15.2c1.5,3.8,6.2,3.1,8.6,1.2c3.9-3.2,4.7-8.4,5.7-13.2
							c1.1-5.3,2.2-10.6,3.2-16c0.5-2.8,1-5.7,1.4-8.5c0.8,0,1.5-0.1,2.3-0.3c1.6-0.3,2.7-2.5,2.2-4.1c-0.6-2.1-1.7-3.8-3.2-5.3
							c0.5-3.9,1-7.8,1.4-11.7c0.3,0.3,0.7,0.6,1,0.9C1440.7,1103,1446.7,1099.2,1445.6,1093.8z"/>
						<path class="st17" d="M1481.7,1114.7c1.6-10.6,2.8-21.7,2.5-32.4c-0.1-5.4-0.4-10.7-1.1-16c-0.6-4.6-0.9-10.6-4.6-13.7
							c-1.1-0.9-2.6-1.2-3.6,0c-2.8,3.1-2.8,7.7-3.1,11.8c-0.4,5.4-0.7,10.8-1.2,16.1c-0.9,10.4-1.8,20.6-3.5,30.9
							c-0.4,2.5-0.9,5-1.3,7.5c-0.7-0.1-1.3-0.1-2-0.1c-0.8,0.1-2.1,0.8-2.8,0.6c-2.4-0.6-3.5,3.4-1,3.9c1.2,0.3,2.9,2.6,4,3.4
							c0.1,0,0.1,0.1,0.2,0.2c-1,4.7-2.2,9.4-3.5,14c-0.6-0.2-1.2-0.4-1.7-0.7c-6.6-2.3-9.4,8.7-2.9,11c0.4,0.1,0.8,0.3,1.2,0.5
							c-0.5,1.5-1,3-1.6,4.5c-1.8,5.1-4.2,9.9-4.8,15.3c-0.7,6.2,7.9,9.4,11.5,5.1c3.5-4.1,5.1-9.5,7-14.5c0.5-1.5,1.1-3,1.6-4.4
							c2.2-0.5,3.7-3,2.4-5.5c-0.1-0.2-0.2-0.5-0.4-0.7c0.5-1.5,1-3.1,1.4-4.6c0.9-3.2,1.8-6.3,2.6-9.5c0.7,0.2,1.5,0.3,2.3,0.2
							c1.5-0.1,2.7-1,3.2-2.6c1.1-3.6-0.5-6.8-2.9-9.3C1480.5,1122.1,1481.2,1118.4,1481.7,1114.7z"/>
						<path class="st17" d="M1336.9,1228.8c-4.6,2.4-11.2,5.5-13.5,10.6c-1,2.3,0.2,4.9,2.7,5c5.5,0.2,10.9-4.6,15.1-7.8
							C1345.7,1233.2,1342,1226.1,1336.9,1228.8z"/>
						<path class="st17" d="M1369.8,1219.3c-1.7-0.4-3.5-0.7-5.3-0.3c-1.5,0.3-3.1,0.8-4.6,1.2c-5.2,1.3-3,9.9,2.2,8.5
							c1.5-0.4,3.1-0.8,4.6-1.3c1.7-0.5,3.1-1.7,4.4-2.9C1372.8,1223.1,1371.9,1219.9,1369.8,1219.3z"/>
						<path class="st17" d="M1402.6,1218.3c-5.5-2.1-11.9-1.3-17.7-1.2c-5.2,0.1-5.2,8.5,0,8.5c5.8,0.1,12.2,0.9,17.7-1.2
							C1405.4,1223.3,1405.4,1219.4,1402.6,1218.3z"/>
						<path class="st17" d="M1439.1,1226.3c-3.1-4.7-9.4-5.7-14.3-7.2c-5.6-1.8-7.8,7.3-2.4,9.1c4.5,1.5,10.2,4.7,14.9,2.8
							C1438.9,1230.3,1440.3,1228.1,1439.1,1226.3z"/>
						<path class="st17" d="M1464.2,1234.6c-0.4-1.3-1.1-2.5-2.3-3.2c-0.6-0.4-1.3-0.8-1.9-1.1c-1.2-0.7-2.6-0.9-3.9-0.5
							c-1.2,0.3-2.5,1.3-3,2.5c-0.6,1.2-0.9,2.8-0.5,4.1c0.4,1.3,1.2,2.7,2.3,3.2c0.7,0.3,1.4,0.6,2,1c0.6,0.4,1.2,0.6,1.9,0.6
							c0.7,0.2,1.3,0.1,2-0.1c1.2-0.3,2.4-1.3,3-2.4C1464.3,1237.5,1464.6,1236,1464.2,1234.6z"/>
						<path class="st17" d="M1521.9,1149c-1.5-1.8-3-3.6-4.6-5.4c1.8-13.9,1.7-27.8,0-41.9c-0.6-5.1-7.7-5.5-7.8,0
							c-0.5,16.8-3,33.8-7,50c-0.8,3.3-1.7,6.6-2.7,9.9c-1.1-0.9-2.2-1.7-3.3-2.6c-2-1.7-4.8-2.1-6.7,0c-1.8,1.9-1.9,5.3,0,7.1
							c2.1,2,4.2,4.3,6.3,6.4c-0.3,0.8-0.6,1.6-0.9,2.5c-3,7.9-7.9,15.6-10.1,23.7c-1.8,6.4,6.5,11.8,10.9,6.7
							c5.8-6.7,9.1-16.5,12.2-24.9c0.1-0.4,0.3-0.8,0.4-1.2c2.1-0.9,3.2-3.9,2.1-6.3c1.6-5,2.9-10,4.1-15.1c2.1,1.6,5.3,1.3,7.1-0.6
							C1524.2,1154.9,1523.9,1151.4,1521.9,1149z"/>
						<path class="st17" d="M1391.7,1182.3c-0.4,0-0.7-0.1-1.1-0.1c2.7-3.4-0.7-9-4.8-6.5c-3.4,2.2-6.5,4.8-9.5,7.5
							c-1.5,0.1-3.1,0.2-4.6,0.2c-1.1,0-2.2,0-3.3-0.1c2.8-2.2,5.8-4.3,8.8-6.2c5.1-3.3,0.5-11.6-4.7-8.5
							c-5.8,3.5-10.7,8.2-14.9,13.5c-2.2-0.4-4.3-0.8-6.5-1.4c-13.6-3.5-26.1-10.6-36.4-20.7c-2.7-2.7-6.6,1.4-4.1,4.3
							c10.2,12.1,23.4,20.9,37.9,26.1c0.9,0.3,1.8,0.6,2.7,0.9c-1.8,3.2,2.8,7.2,5.1,4.1c0.6-0.8,1.2-1.6,1.8-2.3
							c4,0.8,8.1,1.4,12.2,1.6c1.6,1.8,4.4,2.6,6.7,0.6c0.2-0.1,0.3-0.3,0.5-0.4c5.7-0.1,11.6-0.9,16.3-3.9
							C1397.9,1188.5,1395.9,1182.7,1391.7,1182.3z"/>
					</g>
					<path class="st19" d="M1168.5,1284.2c-7.4-1.6-75.9-15.3-114.6-16.2c-94.6-2.1-225.7,1.6-225.7,1.6
						c-19.7,5.4-36.3,19.4-45.5,38.6l-64.1,132.5l86.3,65.3l29.2-42.5l-5.9,203.3c112.2,33.2,313.9-12,313.9-12
						c-1.2-94.1-27.3-241.5-27.3-241.5l64.4,12.7C1186.9,1380.6,1194.1,1289.9,1168.5,1284.2z"/>
					<path class="st20" d="M879.4,1325.9c13.1,5.4,27.1,7.9,40.9,10.3c19.6,3.4,39.8,6.7,59.3,2.8c34.2-6.9,61.1-35.1,79.8-66.1
						c10.5-17.4-231.2-3.1-231.2-3.1c-5.9,1.6-11.5,4-16.7,7.1c7.6,6.6,15.2,13.1,23,19.4C848.4,1307.7,862.9,1319,879.4,1325.9z"/>
					<path class="st6" d="M1082.8,1401.6c-5.6-12.2-13.6-22.1-23.5-30.7c-5-4.3-10.1-8.3-15.4-12.1c0,0,0,0-0.1-0.1
						c-1.8-2.5-3.6-5-5.5-7.4c-0.5-0.6-1-1.3-1.7-1.6c-0.8-0.3-1.7-0.1-2.5,0.2c-1,0.3-2,0.6-3.2,1c-1.4-0.4-2.9-0.5-4.4-0.3
						c-1.4,0.2-2.8,1.5-3.1,3c-9.5,3.9-19.7,9.9-20.8,18.8c-1,7.4,2.8,17.9,3.6,25.4c1,9,1.6,18,1.8,27c0,1.1,0,2.1,0.1,3.2
						c-0.4,3.3-0.9,6.6-1.5,9.8c-1.7,8.6-4.2,17.1-6.7,25.5c-1.8,6.1,5.9,9.6,8.7,3.9c4.4-8.9,8.5-17.6,11-27.3c0,0,0-0.1,0-0.1
						c1.1,0.2,2.1,0.3,3.2,0.4c0.7,0,1.4,0.1,2.1,0.1c0.1,9.4-0.6,19.2-4,27.8c-3,7.6,8,12.4,11.1,4.9c3.9-9.3,6.2-19.2,6.7-29.3
						c0.1-1.7,0.1-3.4,0.2-5.1c1.8-0.4,3.5-1,5.3-1.5c0.1,0.6,0.1,1.2,0.1,1.6c0.3,5,0.2,10,0.1,15c-0.2,5.3,0.3,10.9-0.9,16.1
						c-0.9,3.9,4.7,5.2,6.2,1.8c2.1-4.7,4.9-8.7,6.5-13.6c1.5-4.8,2.6-10,3-15.1c0.2-2.9,0.6-7.5,0.3-12.1c0.7-0.3,1.4-0.7,2.2-1
						c0.7,1.2,1.4,2.3,2,3.4c3.8,7.1,6.2,15,9.8,22.1c1.7,3.3,5.6,3.4,7.3,0c3.9-7.9-0.8-18.4-3.9-25.8c-1.3-3-2.7-6-4.1-8.9
						c0.6-3.1-0.4-6.7-1.6-9.8c-2.6-7.2-5.6-14.2-8.9-21c4.6,4.6,8.7,9.7,11.5,15.6C1076.4,1411.5,1085.5,1407.7,1082.8,1401.6z"/>
					<path class="st5" d="M883.2,1189.8c0,0-96.1,59-79.1,106.9c17,47.9,205.4,117.5,222.5,106.9c17.1-10.6,35.2-34,23.9-40.1
						c-11.3-6.2-161.6-88.5-145.4-108.7C921.2,1234.5,901.7,1185.9,883.2,1189.8z"/>
					<g>
						<path class="st7" d="M903.9,1173.8l1.7,96.8c0,0,47.6,27.3,71.3-4.1l6.7-101.3C983.5,1165.2,919.9,1150.2,903.9,1173.8z"/>
						<path class="st12" d="M978.2,1244.5l5.3-79.4c0,0-63.6-15-79.6,8.6l1.2,71.4C928.5,1253.9,954.9,1253.5,978.2,1244.5z"/>
						<path class="st12" d="M1031.8,1087.9c2.7-0.6,5.5-0.8,8.1,0.1c4.4,1.4,7.6,5.7,9.1,10.2s1.5,9.6,1.4,14.4
							c-0.2,9.2-0.9,18.9-5.5,26.8c-6.6,11.4-19.6,16.7-32,19.5c-2.2,0.5-4.5,0.9-6.5-0.1c-3.7-1.9-4.1-7.2-3.8-11.6
							C1004.3,1123.3,1004.7,1093.4,1031.8,1087.9z"/>
						<path class="st12" d="M843.7,1087.9c-2.7-0.6-5.5-0.8-8.1,0.1c-4.4,1.4-7.6,5.7-9.1,10.2s-1.5,9.6-1.4,14.4
							c0.2,9.2,0.9,18.9,5.5,26.8c6.6,11.4,19.6,16.7,32,19.5c2.2,0.5,4.5,0.9,6.5-0.1c3.7-1.9,4.1-7.2,3.8-11.6
							C871.3,1123.3,870.8,1093.4,843.7,1087.9z"/>
						<path class="st5" d="M834.5,1035.3c-10.2-0.3-16,12.8-25.7,16.2c3.6-26,16.5-50.5,35.5-67.4c19-17,43.9-26.4,68.8-25.9
							c-10.5-6.1-21.7-10.8-33.3-13.8c23-2.9,46.3-5.9,69.3-2.7c23,3.1,46,13.1,60.9,31.9c-1.6-8.3-2.2-16.7-1.7-25.2
							c20,17.4,30.2,45,32.1,72.3c1.9,27.3-3.9,54.5-11.3,80.7c-1.1,3.9-2.3,7.8-4.8,10.9c-3.2,4-8.2,5.9-12.9,7.5
							c-25.2,8.7-51,16-77.4,17.7c-23.3,1.5-47.3-1.5-68.9-11.3c-8.1-3.7-16-7.2-20.2-15.6c-5.4-10.7-8.6-23.1-10.4-35
							C833.9,1072.1,831.4,1035.2,834.5,1035.3z"/>
						<path class="st7" d="M848.6,1074.6c-7.8,3.7,0.2,153.8,72.6,159.9c72.4,6.1,110-43,102.2-190.2c-3.1,4.4-9.6,11.9-12.8,16.3
							c-4.6,6.2-9.3,12.3-15,17.3c-11.6,10.3-26.6,15.4-41.4,18.9c5.9-5.5,7.4-13.9,9.4-22c-16.1,8-36,10-53.6,12.6
							c4.7-0.3,8.8-4,11.1-8.3c2.3-4.4,3.2-9.4,4.1-14.3c0.5-2.9,1-5.8,1.5-8.6c-17.8,10.6-38,18.1-58.3,20.5
							c2.9-7.9,5.8-15.9,8.7-23.8C868.5,1057.2,857.5,1070.4,848.6,1074.6z"/>
					</g>
				</g>
				<g>
					<path class="st12" d="M443.6,1872.6L420.1,1235c7.9-16.4,12.7-40.3,15.3-56.9c1.5-9.9-5.6-18.9-15.1-19
						c-18.9-0.1-48.1-0.1-61.9,1.3c-21.4,2.2,10,74.6,10,74.6L340,1872.6H443.6z"/>
					<path class="st5" d="M368,1234.1c0.2,0.6,0.4,0.9,0.4,0.9l-13.2,297.2c24.8,6.6,50.9,7.6,76,2.5L420.3,1239
						C402.7,1240.4,385,1238.7,368,1234.1z"/>
				</g>
				<path class="st21" d="M407.6,1187.5c1.9,17.3,3,34.6,3.4,51.9c3.1-0.1,6.2-0.2,9.2-0.4l4.5,123.3l-4.7-127.3
					c7.9-16.4,12.7-40.3,15.3-56.9c1.5-9.9-5.6-18.9-15.1-19c-18.9-0.1-48.1-0.1-61.9,1.3c-9.6,1-8.5,16.2-4.4,32.7
					C371.9,1194.5,390.1,1192.6,407.6,1187.5z"/>
				<path class="st21" d="M431.2,1534.8c-9.6,1.9-19.5,3-29.3,3.2c0.3,30.5,0.8,61.1,0.2,91.6c-1.6,81.4-10.8,162.3-21.2,243h62.6
					L431.2,1534.8z"/>
				<path class="st22" d="M411,1239.5c2.1,75.1-7,150.6-8.9,225.9c-0.6,24.2-0.5,48.4-0.2,72.6c9.8-0.2,19.6-1.2,29.3-3.2
					l-6.3-172.4l-4.5-123.3C417.2,1239.3,414.1,1239.4,411,1239.5z"/>
				<path class="st3" d="M614.5,1139.1c-2.1-10.8-4.2-21.8-9.5-31.3c-12.8-22.9-39.9-31.2-64.7-35.9c-50.2-9.5-101.5-12.3-152.4-8.5
					c-4.9,2.1-10.1,3.8-15,2.1c-3.3-1.1-5.9-3.6-8.6-5.9c-22.7-19.7-51.8-29.9-80.9-33.5c-11.9-1.5-23.8-1.9-35.7-1.6
					c-57.6,62.8-101,122.8-74.6,138.7c60.9,36.6,360.8-19.9,383.7-6.5c0,0,10.1,86.7,10.8,102.5c16.3-11.1,31.7-17.5,41.2-35.4
					c3.9-7.3,7.1-15.1,8.9-23.3C622.2,1180.4,618.4,1159.4,614.5,1139.1z"/>
				<path class="st4" d="M392.9,1065.4c0.9-1.5,0.5-4-1.5-4.7c-18.7-6.3-39.1-7.4-58.6-8.6c-5.8-0.4-5.8,9.2,0,9.5
					c9.4,0.5,18.7,1.6,28,2.7c-5.9,0.6-11.8,1.4-17.6,2.4c-16.6,2.8-32.9,7.6-48.7,13.7c-4.6,1.8-2.5,10,2,7.8
					c12.6-6.1,29.1-10.1,46.3-12.5c16.1-2.2,32.2-2.6,48.3-4.3C394,1071.2,395.4,1066.7,392.9,1065.4z"/>
				<path class="st4" d="M594.7,1197.3c-1-6.4-9.9-3.6-9.1,2.7c1.2,9.1,2.2,18.4,1.6,27.6c-0.2,4.2-0.9,8.4-2.1,12.4
					c-1.3,4.4-3.3,8-3.6,12.7c-0.2,3,3.2,4.6,5.4,3.3c8.3-4.8,9.8-17.8,10.3-26.8C597.8,1218.5,596.3,1207.8,594.7,1197.3z"/>
				<path class="st4" d="M609.7,1179.3c-1.2-5.2-8.3-2.9-7.4,2.2c2.5,14.6,0.7,28.8,0.7,43.4c0,4.3,5.4,4.6,6.7,1
					C615.3,1211.2,613.2,1194.2,609.7,1179.3z"/>
			</g>
			<g>
				<path class="st5" d="M1612.7,1614.8c0,0-50.6,211.4-43.5,257.1h320.5c0,0-32.3-206.8-57.3-265.5L1612.7,1614.8z"/>
				<path class="st18" d="M1568.5,1319.5l-88.3,111.4c-21.7,8.4-137.7,168.5-145.2,178.8c-5.4,2.5-10.9,5.9-15.6,7.7
					c-8.7,3.4-17.6,6.4-26.6,8.9c-1.1,0.3-2.1,0.6-3.2,1c-3.4,0.4-6.8,0.7-10.2,0.8c-9,0.3-18.3-0.3-27.3-0.9
					c-6.6-0.5-8.1,9.1-1.6,10.8c10.1,2.6,19.8,4.9,30.2,5.3c0,0,0.1,0,0.1,0c0.1,1.2,0.2,2.5,0.4,3.7c0.1,0.8,0.3,1.6,0.5,2.4
					c-9.4,2.5-19.4,4.2-28.9,2.7c-8.3-1.4-10.4,12.1-2.1,13.6c10.3,1.9,20.8,2,31.1-0.1c1.7-0.3,3.4-0.7,5.1-1.1
					c0.9,1.9,1.9,3.7,2.9,5.5c-0.6,0.2-1.1,0.4-1.6,0.6c-5,1.6-10,2.8-15,3.9c-5.3,1.2-10.9,3.1-16.3,3.1c-4.2,0-4,6.6-0.2,7.4
					c5.2,1.2,10,3.3,15.3,3.8c5.2,0.5,10.7,0.3,15.9-0.5c3-0.5,7.6-1.3,12.2-2.8c0.5,0.7,1.1,1.4,1.6,2.1c-1,1.1-2,2.2-2.9,3.1
					c-6.2,6.1-13.4,10.7-19.6,16.7c-2.8,2.7-2,7.2,1.8,8.2c8.9,2.4,18.2-5.7,24.8-11c2.7-2.2,5.3-4.5,7.9-6.9
					c3.3-0.1,6.6-2.2,9.4-4.3c6.5-4.8,12.8-9.9,18.8-15.4c-3.4,6.4-7.4,12.3-12.7,16.8c-5.3,4.6,0.9,13.8,6.3,9.2
					c10.8-9.4,18.7-20.9,24.7-34.2c3-6.6,5.7-13.4,8.2-20.3c0,0,0-0.1,0-0.1c0.3-0.4,0.6-0.8,1-1.3c7.7-5.2,91.1-61.1,122-78
					c32.4-17.7,47.3-57,47.3-57l107.4-142.7C1646.2,1370.5,1596.3,1284.4,1568.5,1319.5z"/>
				<path class="st18" d="M2152.7,954.8c-9.8,3.6-19.2,7.2-28.1,13c0,0-0.1,0.1-0.1,0.1c-0.7-1-1.5-2-2.2-2.9
					c-0.5-0.6-1.1-1.1-1.6-1.7c6.6-7.5,14.1-14.7,22.9-18.9c7.7-3.6,2.5-16.1-5.3-12.6c-9.7,4.3-18.5,10.3-26.1,17.9
					c-1.3,1.3-2.5,2.6-3.7,3.9c-1.7-1.1-3.5-2-5.3-3c0.4-0.5,0.7-1,1.1-1.4c3.4-4.2,6.9-8.1,10.6-12c3.9-4,7.5-8.8,12.1-12
					c3.5-2.4-0.1-7.8-3.6-6.3c-5,2-10,3-14.8,5.7c-4.6,2.6-9.2,5.9-13.1,9.6c-2.2,2.1-5.8,5.5-8.8,9.3c-0.8-0.3-1.6-0.6-2.5-0.9
					c0.3-1.5,0.5-3,0.8-4.3c2-8.6,5.7-16.7,7.8-25.2c1-3.9-2-7.2-5.8-5.8c-8.7,3.2-12.4,15.2-15.1,23.5c-1.1,3.4-2.1,6.9-3,10.3
					c-2.7,2-4.4,5.7-5.7,9c-3,7.7-5.6,15.7-7.8,23.7c-0.4-7.3-0.1-14.6,2-21.4c2.1-6.9-7.9-11-10-4.1c-4.2,14.1-4.9,28.2-3.1,42.9
					c0.9,7.3,2.1,14.6,3.6,21.7c0,0,0,0.1,0,0.1c-0.1,0.5-0.1,1.1-0.2,1.6c-3.8,8.8-90.9,272-90.9,272l-114.5,1.5l-15.3,116.5
					c0,0,166.2,5.5,199.4-23.8c33.2-29.3,49.3-155.6,49.3-155.6l0,0c10.6-63.5,19.8-188,20.5-198.1c3.2-5.2,6.1-11.2,9.1-15.4
					c5.6-7.9,11.5-15.5,17.8-22.8c0.7-0.9,1.5-1.7,2.2-2.6c2.6-2.3,5.3-4.5,8.2-6.6c7.4-5.5,15.5-10.3,23.4-14.9
					C2162.6,961.3,2159,952.5,2152.7,954.8z"/>
				<path class="st6" d="M1932.3,1258c-5.7-7.4-38.9,0.5-75.7-6.5c-33.2-6.3-62.5,0.8-71.6-33.4l-118.1,2.3c-9.6,27.4-32.7,47-60,51
					c-35.2,5.2-78.4,13.8-77.6,24.3c1.4,17.6,55.7,72.5,55.7,72.5l3.2,79.5c0,0,36.3,141.4-16.8,204.4c0,0,182.1,55,299.9,2.7
					c0,0-1.7-206.6,9.2-249.7C1880.4,1405.1,1942.5,1271.3,1932.3,1258z"/>
				<path class="st9" d="M1690.1,1313.8c28.5,11.7,61.5,4.4,88.1-11.5c15.1-9,47.3-40.7,60-53.2c-16.4-12.1-47.6-9.8-53.3-30.9
					l-118.1,2.3c-7.1,20.4-21.7,36.4-40,45c8,7.4,16.2,14.6,24.4,21.8C1663.2,1297.5,1675.6,1307.8,1690.1,1313.8z"/>
				<g>
					<path class="st5" d="M1901,1062.7c13.8-6.3,14.5-30.9,1-38c6.8-2.6,6.1-13.4,2-19.7c-4.1-6.3-10.4-11.8-11.1-19.4
						c-0.4-5,1.8-10.1,1-15.1c-2.3-14.7-26.6-15.6-28.9-30.4c-0.7-4.2,0.8-8.4,1.4-12.7c2.1-15.5-9-30.7-22.9-36.2
						c-13.9-5.5-29.7-2.9-43.4,2.9c-3.4-13.9-14.9-25.3-28.3-27.8c-13.4-2.6-28,3.8-35.8,15.6c-5.9-10.5-18.1-16.5-29.5-14.6
						s-21.3,11.6-23.9,23.4c-18.6-12.9-48,1-51.3,24.2c-24.8-1.6-46.5,27.5-39.4,52.6c-12.3-4.7-26.1,6.7-28.7,20.2
						c-2.7,14.5,4.4,29.4,13.4,40.4c1.2,1.4,2,3.2,2.2,5.1c1.3,9.3-11.2,10.3-16.1,17c-7.6,10.3,6.4,25.5,2.2,37.8
						c-2.3,6.7-9.2,10.4-12,16.8c-4.1,9.4,2.3,20,8.3,28.2c-6.7,7.3-7.3,18.7-1.5,26.8c3,4.2,6.3,8,10,11.5
						c-8.1,3.8-9.8,15.9-5.7,24.2s12.3,13.2,20.3,17.2c24.7,12.3,52,18.7,79.2,18.8c15.5,0,24.4,9.2,38.4,16
						c35.5,17.1,79.4,12.9,111.4-10.6c5.2-3.9,10.3-8.2,16.2-10.8c8.9-3.9,19.4-3.5,27.5-9c8.1-5.5,10.1-21.6,0.7-24
						c11.6-3.6,23.8-7.6,31.9-17.1c8.1-9.4,9.9-26.2,0.5-34.1c15.7,0.9,25.7-23.9,14.2-35.3
						C1919.9,1098.1,1917.7,1068.7,1901,1062.7z"/>
					<path class="st23" d="M1901,1062.7c13.8-6.3,14.5-30.9,1-38c6.8-2.6,6.1-13.4,2-19.7c-4.1-6.3-10.4-11.8-11.1-19.4
						c-0.4-5,1.8-10.1,1-15.1c-2.3-14.7-26.6-15.6-28.9-30.4c-0.7-4.2,0.8-8.4,1.4-12.7c2.1-15.5-9-30.7-22.9-36.2
						c-2.3-0.9-4.6-1.6-7-2.1c4.2,6.8,6.3,15.4,5.8,23.5c-1,15.5-9.6,29.4-19.9,40.5c9.2-0.8,19.1,3.3,23.9,11.7
						c4.8,8.4,2.8,20.8-5.1,25.8c9.5,1.4,17.5,10.6,18.1,20.7c0.6,10.1-6.3,20.2-15.6,22.9c9.3,2.2,13.9,14.8,10.2,24.1
						c-3.7,9.3-13.3,14.7-22.8,15.5c7.8,9.5,8.9,24.4,2.6,35c-6.3,10.6-19.6,16-31,12.7c5,11.5-3.7,25.5-14.8,30.1
						c-11.2,4.6-23.7,2.6-35.5,0.5c5.8,9.8-3.6,22.7-14,26.3c-10.5,3.6-22.1,2.3-32.3,6.6c4.2,7.7,4.9,17.7,0.7,25.4
						s-13.7,12-21.6,8.9c3.3,6.3,3.8,13.3,2.6,20.2c4.4,2.6,9,5.5,14.2,8c35.5,17.1,79.4,12.9,111.4-10.6
						c5.2-3.9,10.3-8.2,16.2-10.8c8.9-3.9,19.4-3.5,27.5-9c8.1-5.5,10.1-21.6,0.7-24c11.6-3.6,23.8-7.6,31.9-17.1
						c8.1-9.4,9.9-26.2,0.5-34.1c15.7,0.9,25.7-23.9,14.2-35.3C1919.9,1098.1,1917.7,1068.7,1901,1062.7z"/>
					<path class="st24" d="M1814.2,1136.9c3.6,8.8,7.2,18.4,5.3,27.8c-2.1,10.3-10.4,17.9-18.7,23.8c-4.4,3.1-10.4,6.1-14.9,3
						c-1.8-1.3-3-3.4-4-5.4c-5.4-11.4-9.9-33.2-2.9-45.3C1785.1,1130.3,1809,1123.7,1814.2,1136.9z"/>
					<path class="st24" d="M1618.5,1145.9c-3.6,8.8-7.2,18.4-5.3,27.8c2.1,10.3,10.4,17.9,18.7,23.8c4.4,3.1,10.4,6.1,14.9,3
						c1.8-1.3,3-3.4,4-5.4c5.4-11.4,9.9-33.2,2.9-45.3C1647.7,1139.4,1623.8,1132.8,1618.5,1145.9z"/>
					<path class="st18" d="M1635.1,1139c0,0,12.1,145.7,64,148.2c51.9,2.5,93.9,11.6,94.3-160.9
						C1793.7,1006.4,1629.3,1060.1,1635.1,1139z"/>
					<path class="st8" d="M1801,980.6c-0.2,0.9,1.7,0.9,1.5-0.1"/>
				</g>
			</g>
			<g>
				<ellipse class="st3" cx="2084" cy="927.4" rx="59.9" ry="63.2"/>
				<path class="st25" d="M2131.3,909.7c-3.5,0.5-6.9,1.9-10.2,3.8c0.2-0.2,0.3-0.5,0.4-0.8c0.4-1.4-0.5-3-1.8-3.4
					c-1.5-0.4-3-0.7-4.5-1c-1.2-0.3-2.5,0.4-2.9,1.7c-0.4,1.4,0.4,2.6,1.6,3c1.4,0.5,2.9,1.2,4.4,1.6c0.3,0.1,0.5,0.1,0.8,0.1
					c-3.2,2-6.2,4.3-8.9,6.5c-6.5,5.4-12.1,12-16.6,19.4c-0.1,0.2-0.2,0.4-0.3,0.5c0.4-1.6-1-3.4-2.7-2.9c-1.1,0.3-1.9,1-2.9,1.5
					c-0.4,0.2-0.8,0.4-1.2,0.6c-0.4,0.3-0.8,0.7-1.3,0.9c-1.4,0.6-1.3,2.8,0.4,2.9c0.6,0,1.2,0.2,1.8,0.2c0.6,0,1.3-0.2,1.9-0.3
					c1.2-0.4,2.5-0.8,3.4-1.8c-4.2,7.4-7.4,15.5-9.4,23.8c-1.1,4.5-1.9,9.1-2.1,13.7c-0.2,3.1-0.9,6.7,1.8,8.6
					c1.1,0.8,2.6-0.3,2.6-1.6c0-3.7,1.5-7.7,2.3-11.3c0.9-3.9,2.1-7.8,3.4-11.6c2.6-7.5,5.9-14.8,10.3-21.4
					c3.9-5.9,8.6-11.3,13.9-15.8c5.7-4.8,12.1-7.4,18.3-11.1C2136.8,913.6,2134.5,909.2,2131.3,909.7z"/>
				<path class="st25" d="M2096.5,975.7c-0.5-1.6-0.6-3.3-1.7-4.6c-0.4-0.4-1.2-0.5-1.5,0c-1.3,1.7-1,3.8-0.8,5.8
					c0.3,2.2,0.6,4.7,2.9,5.5c1.1,0.4,2-0.4,2.3-1.4C2098.3,979.1,2097,977.3,2096.5,975.7z"/>
				<path class="st25" d="M2104.5,960c-0.3-0.8-0.7-1.6-1.1-2.3c-0.8-1.6-1.9-2.9-2.6-4.5c-0.6-1.2-2.3-0.4-2,0.9
					c0.5,1.7,0.5,3.5,1,5.2c0.2,0.8,0.4,1.7,0.7,2.5c0.4,0.9,0.8,1.2,1.5,1.8c1.1,0.9,2.4,0.3,2.6-1.1
					C2104.7,961.4,2104.8,960.9,2104.5,960z"/>
				<path class="st25" d="M2108.9,948.5c-1.1-1.4-2.3-2.4-3.6-3.5c-0.8-0.6-1.9,0.6-1.3,1.4c0.8,1.3,1.5,2.7,2.1,4.1
					c0.6,1.5,0.8,3.1,1.8,4.3c1.2,1.4,3.6,0.3,3.5-1.5C2111.2,951.5,2110,949.9,2108.9,948.5z"/>
				<path class="st25" d="M2114.1,936.1c-1-1-2.7,0.3-2,1.6c0.8,1.4,1.4,3,1.9,4.5c0.5,1.5,0.7,3.1,1.2,4.7c0.7,2.3,4.4,2.1,4.2-0.6
					C2119.1,942.4,2116.7,938.8,2114.1,936.1z"/>
				<path class="st25" d="M2127.2,932.4c-0.7-1.7-1.7-3.2-2.9-4.6c-1-1.1-2.6,0.3-1.9,1.6c0.7,1.3,1.3,2.7,1.7,4.2
					c0.4,1.4,0.9,2.8,1.3,4.2c0.3,1.1,2.1,1.3,2.3,0C2128,935.8,2128,934.2,2127.2,932.4z"/>
				<path class="st25" d="M2081.1,964.2c-1.4,0.3-2.4,1.1-3.5,2c-0.5,0.4-0.9,0.8-1.4,1.1c-0.6,0.5-1,1.2-1.7,1.7
					c-1,0.7-0.4,2.4,0.8,2.1c0.7-0.2,1.5-0.2,2.2-0.4c0.8-0.3,1.5-0.7,2.2-1.1c1.5-0.8,2.5-1.8,3.1-3.5
					C2083.3,964.9,2082.1,964,2081.1,964.2z"/>
				<path class="st25" d="M2078.6,976.2c-2.3,1.5-4.2,3.6-6.4,5.2c-0.8,0.6-0.3,2.1,0.7,1.7c2.9-1,5.7-2.5,7.1-5.5
					C2080.4,976.7,2079.5,975.6,2078.6,976.2z"/>
				<path class="st25" d="M2085.6,949.8c-1.5,0.3-2.4,1.1-3.6,2c-0.5,0.4-1,0.8-1.6,1.1c-0.6,0.4-1.3,1-1.9,1.4
					c-1.3,0.6-0.3,2.6,0.9,2.3c0.8-0.2,1.5-0.1,2.3-0.4c0.8-0.3,1.6-0.7,2.4-1c1.6-0.8,2.6-1.8,3.2-3.5
					C2087.6,950.4,2086.5,949.6,2085.6,949.8z"/>
				<path class="st25" d="M2100.2,924.8c-1.6-0.7-3.1,0-4.6,0.6c-1.5,0.6-2.8,1.3-4,2.4c-1.5,1.2-0.7,3.7,1.3,3.2
					c1.4-0.3,2.8-0.7,4.2-0.9c1.6-0.3,2.8-0.4,4.1-1.6C2102.4,927.3,2101.5,925.4,2100.2,924.8z"/>
				<path class="st25" d="M2110.9,913.9c-3-0.2-6.5,0.8-9.3,1.7c-2,0.7-1.5,3.4,0.5,3.7c3,0.4,6.5,0.6,9.5-0.2
					C2114.4,918.3,2113.6,914.1,2110.9,913.9z"/>
				<path class="st25" d="M2074.7,870.5c-3,5-4.7,10.9-7.7,16c-3.2,5.6-7,10.8-11.2,15.5c-4.2,4.8-9.2,9.6-14.6,13.8
					c1.1-0.8,0.5-2.6-0.8-2.7c-1.2-0.1-2.2,0-3.4,0.1c-1.2,0.1-2.3,0.1-3.5-0.4c-1.5-0.6-2.1,1.9-0.7,2.5c1.3,0.6,2.7,1.2,4.2,1.4
					c1.6,0.2,2.7,0,4.1-0.8c-4.4,3.4-9,6.3-13.6,8.5c-0.9,0.4-0.3,2.1,0.7,1.7c5.9-2.6,11.5-4.6,16.9-8.4c5-3.6,9.7-7.8,14-12.4
					c4.3-4.6,8-9.7,11.3-15.2c3.2-5.3,7.2-11.8,8-18.1C2078.6,869.8,2076,868.4,2074.7,870.5z"/>
				<path class="st25" d="M2036.4,926.6c-0.6,1.3-1.2,2.6-1.7,4c-0.5,1.2-1,2.5-0.7,3.9c0.2,0.7,1.1,1.2,1.7,0.7
					c2-1.6,2.3-5.1,2.9-7.6C2039,926.2,2037,925.2,2036.4,926.6z"/>
				<path class="st25" d="M2046.8,921.3c0-1.6-2.1-1.5-2.3,0c-0.1,1.1-0.7,2.3-1.2,3.2c-0.5,1-1,2-1.7,2.9c-1.2,1.5,0.6,3.4,2,2.1
					c1.1-1,2.1-2.2,2.6-3.7C2046.9,924.3,2046.8,922.9,2046.8,921.3z"/>
				<path class="st25" d="M2028.9,929.5c-0.4,2-1.6,3.5-2.3,5.5c-0.4,1.3,1.3,2.2,2.1,1.3c1.5-1.6,1.8-4,2.2-6.2
					C2031.1,928.7,2029.1,928.1,2028.9,929.5z"/>
				<path class="st25" d="M2053.9,915.5c-0.3-1.2-1.9-0.9-2,0.3c-0.2,2-1.2,4-1,6c0.1,1.1,1.5,2,2.3,1c0.9-1.1,1.2-2.1,1.2-3.6
					C2054.4,918,2054.2,916.7,2053.9,915.5z"/>
				<path class="st25" d="M2061,914.2c-0.1-1.7-0.6-3.1-1-4.8c-0.3-1.3-2.5-1.1-2.3,0.3c0.2,1.5,0,3,0,4.4c0,1.3-0.4,2.8,0.7,3.7
					c0.4,0.4,1,0.5,1.5,0.2C2061.3,917.3,2061.1,915.7,2061,914.2z"/>
				<path class="st25" d="M2069,904.4c-0.4-1.1-1.1-2.4-2.1-3c-0.6-0.4-1.5-0.1-1.7,0.7c-0.2,1.1,0,2.2,0.2,3.3
					c0.2,1.3,0.1,2.4,0.8,3.6c0.9,1.5,2.7,1,3.3-0.5C2070,907.2,2069.5,905.8,2069,904.4z"/>
				<path class="st25" d="M2075,896.6c-0.6-1.2-1.2-2.4-1.7-3.7c-0.5-1.3-2.4-0.8-2,0.6c0.4,1.3,0.6,2.6,0.8,4
					c0.2,1.2,0.5,2.6,1.8,2.9c0.4,0.1,0.9,0,1.1-0.3C2075.9,898.9,2075.6,897.8,2075,896.6z"/>
				<path class="st25" d="M2082.7,889.1c-0.8-2.5-2.6-4.6-3.7-6.9c-0.8-1.7-3.1-0.2-2.4,1.5c0.9,2.3,1.3,4.9,2.6,7
					C2080.3,892.5,2083.4,891.4,2082.7,889.1z"/>
				<path class="st25" d="M2085.2,877.5c-0.6-1.2-1.3-2.3-2.1-3.4c-1-1.4-3.4-0.1-2.3,1.4c1.4,2,2.2,4.2,3.3,6.4
					c0.5,1.1,2.4,0.6,2.2-0.6C2086.1,879.8,2085.8,878.8,2085.2,877.5z"/>
				<path class="st25" d="M2031,917.5c-0.8-0.1-1.6-0.3-2.4-0.4c-0.6-0.1-1.3,0.2-1.5,0.9c-0.2,0.6,0.2,1.5,0.8,1.6
					c0.8,0.1,1.6,0.3,2.4,0.4c0.6,0.1,1.3-0.2,1.5-0.9C2032,918.5,2031.6,917.6,2031,917.5z"/>
				<path class="st25" d="M2048,905.8c-3.5-0.6-7,0.9-10.3,2.1c-1.1,0.4-1,2.3,0.3,2.3c3.4-0.1,7.3,0.2,10.4-1.6
					C2049.3,908,2049.2,906.1,2048,905.8z"/>
				<path class="st25" d="M2054.4,895.4c-2.7,0.5-4.8,2.5-7.7,2.8c-1.6,0.2-1.7,2.8,0,2.8c3-0.1,7.1-0.1,9.2-2.7
					C2057.2,896.9,2056,895.1,2054.4,895.4z"/>
				<path class="st25" d="M2061.4,885.8c-2.7-0.6-5.9,1.6-8.4,2.4c-1.5,0.5-0.9,2.7,0.6,2.5c1.5-0.3,2.9-0.3,4.4-0.4
					c1.3-0.1,2.8-0.1,3.8-1C2062.9,888.4,2063.1,886.2,2061.4,885.8z"/>
				<path class="st25" d="M2067.1,874.3c-3.3,1.2-6.2,3.2-9.4,4.7c-1.6,0.7-0.5,3.7,1.2,3c3.3-1.3,6.7-2,9.9-3.6
					C2070.9,877.3,2069.4,873.4,2067.1,874.3z"/>
				<path class="st25" d="M2068.7,870c-0.9-0.2-1.5-0.2-2.4,0c-0.6,0.1-1.1,0.2-1.7,0.2c-2.1,0-2.1,3.5,0,3.5c0.6,0,1.1,0.1,1.7,0.2
					c0.3,0.1,0.7,0.1,1.1,0.2c0.4,0,0.9-0.1,1.3-0.2C2070.4,873.4,2070.4,870.3,2068.7,870z"/>
			</g>
		</g>
	</g>
</g>
</svg>
